<svg width="1296" height="114" viewBox="0 0 1296 114" fill="none" xmlns="http://www.w3.org/2000/svg">
<path d="M1017.74 0.00252771C1027.9 0.00252771 1037.18 1.5743 1045.64 4.85452C1054.1 8.13473 1059.69 12.85 1065.9 19.0688C1071 24.1744 1075.11 30.1737 1078.04 36.7683C1081.46 44.5251 1082.84 53.0255 1082.07 61.467C1081.29 69.9086 1078.38 78.0128 1073.61 85.0148C1067.88 93.6937 1061.67 100.528 1051.78 105.516C1041.67 110.612 1030.49 113.212 1019.17 113.102C1010.48 113.163 1001.85 111.706 993.659 108.796C985.746 105.926 980.425 101.894 974.353 96.7006C968.395 91.659 963.561 85.4193 960.164 78.3861C956.79 71.6168 955.038 64.1525 955.048 56.5863C955.048 46.5406 957.981 37.1783 963.848 28.4311C969.715 19.6838 975.854 12.7817 985.678 7.65637C995.586 2.5338 1006.59 -0.0932437 1017.74 0.00252771ZM1019.79 0.275879C1015.21 0.246577 1010.68 1.08122 1006.42 2.73604C1002.45 4.25788 998.858 6.63783 995.91 9.70651C992.656 13.1336 989.962 17.0544 987.929 21.3239C985.63 26.1 983.957 31.1531 982.949 36.3583C981.858 41.8936 981.244 50.3675 981.244 56.7913C981.244 64.7868 982.13 74.6958 983.904 81.2563C985.432 87.3132 988.018 93.0511 991.544 98.204C994.57 102.731 998.642 106.458 1003.41 109.07C1008.15 111.614 1013.46 112.907 1018.83 112.828C1026.06 112.965 1033.13 110.654 1038.89 106.268C1044.55 101.826 1048.85 95.6072 1051.92 87.4067C1054.99 79.2061 1056.49 66.9736 1056.49 55.7662C1056.49 48.5224 1055.67 39.1601 1053.96 32.8047C1052.51 26.931 1050.09 21.3415 1046.8 16.2669C1043.93 11.7568 1040.08 7.95018 1035.54 5.12787C1033.23 3.57959 1030.7 2.38214 1028.04 1.5743C1025.37 0.725829 1022.59 0.288042 1019.79 0.275879Z" fill="#231F21"/>
<path d="M120.609 66.2219C119.903 72.3481 118.365 78.3489 116.038 84.0581C113.335 90.2908 109.197 95.794 103.964 100.118C101.126 102.647 97.9309 104.743 94.4815 106.336C90.8529 107.993 87.0227 109.165 83.0892 109.821C78.8597 110.642 70.6053 110.778 65.2844 110.778V110.983H120.814V66.2219H120.609Z" fill="#231F21"/>
<path d="M120.609 46.9506C119.903 40.8245 118.365 34.8236 116.038 29.1144C113.318 22.8725 109.184 17.3508 103.964 12.9867C101.107 10.5002 97.9152 8.42965 94.4815 6.83626C90.8678 5.12602 87.0333 3.92993 83.0892 3.28269C78.8597 2.53097 70.6053 2.39429 65.2844 2.39429V2.18928H120.814V46.9506H120.609Z" fill="#231F21"/>
<path d="M445.121 110.71H448.122C454.807 110.71 459.719 109.138 462.994 105.858C466.268 102.578 467.837 97.6573 467.837 90.9602V19.7521C467.759 16.8588 467.134 14.0066 465.995 11.3466C465.133 9.44214 463.794 7.79399 462.107 6.56291C458.969 3.82939 454.33 2.39429 448.122 2.39429H445.121V2.18928H511.837V2.39429H508.768C502.082 2.39429 497.171 4.0344 493.964 7.24628C490.758 10.4582 489.121 15.4468 489.121 22.2123V90.9602C489.121 97.6573 490.758 102.646 493.964 105.858C497.171 109.07 502.151 110.71 508.768 110.71H511.837V110.983H445.121V110.71Z" fill="#231F21"/>
<path d="M806.06 110.71H809.13C815.815 110.71 820.727 109.138 824.002 105.858C827.276 102.578 828.845 97.6573 828.845 90.9602V19.7521C828.767 16.8588 828.142 14.0066 827.003 11.3466C826.142 9.44214 824.802 7.79399 823.115 6.56291C819.977 3.82939 815.338 2.39429 809.13 2.39429H806.06V2.18928H872.846V2.39429H869.776C863.09 2.39429 858.179 4.0344 854.904 7.24628C851.63 10.4582 850.129 15.4468 850.129 22.2123V90.9602C850.129 97.6573 851.766 102.646 854.973 105.858C858.179 109.07 863.159 110.71 869.776 110.71H872.846V110.983H806.06V110.71Z" fill="#231F21"/>
<path d="M254.998 2.18928H209.974V2.39429H213.999C220.684 2.39429 225.664 4.0344 228.87 7.24628C232.077 10.4582 233.714 15.4468 233.714 22.2123V90.9602C233.714 97.6573 232.077 102.646 228.87 105.858C225.664 109.07 220.616 110.71 213.999 110.71H209.974V110.983H254.998V2.18928Z" fill="#231F21"/>
<path d="M347.228 37.8617C344.273 31.1746 340.031 25.1368 334.744 20.0938C328.587 13.8812 321.03 9.24082 312.71 6.56291C303.978 3.62438 293.814 2.18928 282.08 2.18928H273.894V2.39429H276.213C281.258 2.33484 286.299 2.67761 291.29 3.41936C295.117 3.98919 298.84 5.11734 302.341 6.76792C305.516 8.28647 308.42 10.3182 310.936 12.7817C314.009 15.9101 316.565 19.5087 318.508 23.4424C320.672 27.9075 322.233 32.6417 323.147 37.52C324.239 42.8503 324.716 51.1192 324.716 57.0646C324.716 75.3108 320.487 91.6436 311.823 100.391C309.5 102.868 306.75 104.905 303.705 106.405C300.256 108.065 296.576 109.194 292.79 109.753C287.777 110.497 282.713 110.84 277.646 110.778H273.894V110.983H287.197C295.915 111.047 304.591 109.756 312.915 107.156C320.409 104.813 327.397 101.081 333.516 96.1539C339.144 91.5947 343.708 85.8567 346.887 79.3427C350.107 72.7513 351.743 65.4961 351.662 58.158C351.643 51.1535 350.131 44.2338 347.228 37.8617Z" fill="#231F21"/>
<path d="M1020.4 99.2291H1020.2V99.4614H1020.4V99.2291Z" fill="#231F21"/>
<path d="M680.267 2.18928V2.39429H680.676C693.41 2.39429 703.938 8.04356 712.261 19.3421C719.219 29.2511 723.381 43.7387 724.677 57.543H724.949V2.18928H680.267Z" fill="#231F21"/>
<path d="M689.067 110.71C675.969 110.71 669.42 104.149 669.42 90.9602V2.18928H648.341V90.9602C648.341 104.149 641.724 110.71 628.558 110.71H625.352V110.983H692.137V110.71H689.067Z" fill="#231F21"/>
<path d="M637.222 2.18928V2.39429H636.812C624.033 2.39429 613.505 8.04356 605.227 19.3421C598.269 29.2511 594.108 43.7387 592.812 57.543H592.607V2.18928H637.222Z" fill="#231F21"/>
<path d="M1192.92 109.958C1189.39 109.608 1185.97 108.513 1182.9 106.746C1179.56 104.676 1176.98 101.585 1175.53 97.9306C1174.23 94.5821 1173.48 90.2085 1173.34 84.8781H1173.07V87.1333C1173.07 92.1903 1172.18 96.4955 1170.41 99.9124C1168.69 103.333 1165.85 106.059 1162.36 107.635C1158.68 109.411 1152.61 110.436 1146.81 110.71V110.983H1203.5V110.71C1199.47 110.573 1195.11 110.3 1192.92 109.958Z" fill="#231F21"/>
<path d="M1192.38 2.18928H1148.79V2.46263H1150.15C1154.72 2.46263 1158.61 3.14601 1161.82 4.58111C1162.87 5.04211 1163.88 5.61483 1164.82 6.28955L1165.02 6.42623C1169.18 9.09141 1185.42 26.7226 1185.56 26.8593L1270.76 112.077H1270.9V83.7164L1192.38 2.18928Z" fill="#231F21"/>
<path d="M1249.95 3.21435C1253.48 3.56493 1256.9 4.65949 1259.98 6.42623C1263.3 8.50005 1265.86 11.5921 1267.28 15.2418C1268.64 18.5904 1269.4 22.964 1269.53 28.2943H1269.8V26.0392C1269.8 20.9822 1270.69 16.6769 1272.4 13.26C1274.14 9.83438 1277.01 7.10987 1280.51 5.53784C1284.13 3.76105 1290.2 2.73598 1296 2.46263V2.18928H1239.31V2.46263C1243.4 2.59931 1247.77 2.87266 1249.95 3.21435Z" fill="#231F21"/>
<path d="M84.5217 27.3377C84.2074 30.3322 83.6831 33.3008 82.9527 36.2216C82.0297 40.5425 80.2933 44.6476 77.8364 48.3174C73.334 54.9462 67.2626 58.2264 59.6223 58.2264H59.213V58.4314C66.5123 58.6364 72.2425 61.1649 76.2674 66.1536C77.6853 67.9377 78.9195 69.861 79.9511 71.8939C81.0514 74.2575 81.8975 76.7316 82.4752 79.2744C83.2986 82.4734 83.9589 85.7122 84.4535 88.9784H84.7264V27.3377H84.5217Z" fill="#231F21"/>
<path d="M44.0004 2.18928H0V2.39429H2.93336C9.68691 2.39429 14.6668 4.0344 17.873 7.24628C21.0793 10.4582 22.7165 15.4468 22.7165 22.2123V90.8235C22.7165 104.081 16.0994 110.778 2.93336 110.778H0V110.983H44.0004V2.18928Z" fill="#231F21"/>
</svg>
